<?xml version="1.0" encoding="utf-8"?>
<!-- Generator: Adobe Illustrator 15.0.2, SVG Export Plug-In . SVG Version: 6.00 Build 0)  -->
<!DOCTYPE svg PUBLIC "-//W3C//DTD SVG 1.1//EN" "http://www.w3.org/Graphics/SVG/1.1/DTD/svg11.dtd">
<svg version="1.1" id="Capa_1" xmlns="http://www.w3.org/2000/svg" xmlns:xlink="http://www.w3.org/1999/xlink" x="0px" y="0px"
	 width="425.2px" height="425.2px" viewBox="0 0 425.2 425.2" enable-background="new 0 0 425.2 425.2" xml:space="preserve">
<symbol  id="Icono_2_-_Comentarios2" viewBox="-31 -25.78 62 51.561">
	
		<radialGradient id="SVGID_1_" cx="2566.8252" cy="28574.2656" r="20.9999" gradientTransform="matrix(1.4762 0 0 0.2143 -3789.1475 -6144.7451)" gradientUnits="userSpaceOnUse">
		<stop  offset="0.0982" style="stop-color:#DFDCDB;stop-opacity:0.85"/>
		<stop  offset="1" style="stop-color:#FFFFFF;stop-opacity:0"/>
	</radialGradient>
	<path fill="url(#SVGID_1_)" d="M31-21.282c0-2.484-13.879-4.498-31-4.498c-17.119,0-31,2.014-31,4.498
		c0,2.486,13.881,4.502,31,4.502C17.121-16.78,31-18.796,31-21.282z"/>
	<g>
		<g>
			<radialGradient id="SVGID_2_" cx="17.4326" cy="-11.3926" r="36.4851" gradientUnits="userSpaceOnUse">
				<stop  offset="0" style="stop-color:#FFFFFF"/>
				<stop  offset="1" style="stop-color:#B1BFC7"/>
			</radialGradient>
			<path fill="url(#SVGID_2_)" d="M8.37-11.717l-0.143-0.043c-2.632-0.801-5.4-1.207-8.226-1.207c-12.958,0-23.5,8.58-23.5,19.125
				c0,10.544,10.542,19.123,23.5,19.123s23.5-8.579,23.5-19.123c0-4.149-1.606-8.096-4.646-11.414l-0.217-0.237l4.489-10.564
				L8.37-11.717z"/>
			<g>
				<path fill="#8C98A0" d="M0.001,24.78c12.682,0,23-8.354,23-18.623c0-4.021-1.561-7.852-4.515-11.077l-0.435-0.474l0.251-0.592
					l3.95-9.294l-13.599,4l-0.287,0.084l-0.286-0.087c-2.585-0.786-5.304-1.185-8.08-1.185c-12.682,0-23,8.355-23,18.625
					C-22.999,16.426-12.681,24.78,0.001,24.78 M0.001,25.78c-13.255,0-24-8.787-24-19.623c0-10.84,10.745-19.625,24-19.625
					c2.944,0,5.765,0.436,8.371,1.229l15.629-4.598L19.224-5.595c3,3.275,4.777,7.344,4.777,11.752
					C24.001,16.993,13.256,25.78,0.001,25.78L0.001,25.78z"/>
			</g>
		</g>
		<g>
			<linearGradient id="SVGID_3_" gradientUnits="userSpaceOnUse" x1="-14.3765" y1="32.7329" x2="6.2868" y2="-5.4702">
				<stop  offset="0" style="stop-color:#FFFFFF"/>
				<stop  offset="1" style="stop-color:#000000"/>
			</linearGradient>
			<path fill="url(#SVGID_3_)" d="M21.479,9.966C19.299,17.858,10.5,23.78,0.001,23.78C-12.131,23.78-22,15.876-22,6.157
				c0-5.777,3.487-10.914,8.864-14.131C-10.961,1.485,3.419,8.964,21.479,9.966z"/>
		</g>
		<g>
			<linearGradient id="SVGID_4_" gradientUnits="userSpaceOnUse" x1="-6.3003" y1="31.7812" x2="0.4283" y2="-1.1383">
				<stop  offset="0" style="stop-color:#FFFFFF"/>
				<stop  offset="1" style="stop-color:#000000"/>
			</linearGradient>
			<path fill="url(#SVGID_4_)" d="M-19.998,4.155c0,9.719,9.869,17.623,22.001,17.623c6.367,0,12.108-2.18,16.129-5.654
				c-3.97,4.619-10.615,7.656-18.131,7.656C-12.131,23.78-22,15.876-22,6.157c0-4.617,2.231-8.824,5.872-11.971
				C-18.566-2.976-19.998,0.458-19.998,4.155z"/>
		</g>
	</g>
</symbol>
<symbol  id="Viñeta_6_-_Azul" viewBox="-24 -24 48 48">
	<g>
		<linearGradient id="SVGID_5_" gradientUnits="userSpaceOnUse" x1="-7.4893" y1="17.9863" x2="10.2789" y2="-24.6873">
			<stop  offset="0" style="stop-color:#FFFFFF"/>
			<stop  offset="1" style="stop-color:#D4D6D7"/>
		</linearGradient>
		<path fill="url(#SVGID_5_)" d="M0-23.75c-13.096,0-23.75,10.654-23.75,23.75S-13.096,23.75,0,23.75S23.75,13.095,23.75,0
			S13.096-23.75,0-23.75z"/>
		<g>
			<path fill="#B2B4B7" d="M0,23.5c12.958,0,23.5-10.542,23.5-23.5c0-12.958-10.542-23.5-23.5-23.5S-23.5-12.958-23.5,0
				C-23.5,12.958-12.958,23.5,0,23.5 M0,24c-13.256,0-24-10.745-24-24s10.744-24,24-24S24-13.255,24,0S13.256,24,0,24L0,24z"/>
		</g>
	</g>
	<g>
		<linearGradient id="SVGID_6_" gradientUnits="userSpaceOnUse" x1="14.6592" y1="-18.2563" x2="-9.2984" y2="11.5796">
			<stop  offset="0" style="stop-color:#FFFFFF"/>
			<stop  offset="1" style="stop-color:#B8BABC"/>
		</linearGradient>
		<path fill="url(#SVGID_6_)" d="M17.5,0c0-9.666-7.834-17.5-17.5-17.5S-17.5-9.667-17.5,0S-9.666,17.5,0,17.5S17.5,9.666,17.5,0z"
			/>
	</g>
	<g>
		<radialGradient id="SVGID_7_" cx="-3.6514" cy="8.5806" r="17.5209" gradientUnits="userSpaceOnUse">
			<stop  offset="0.1264" style="stop-color:#D1EDFB"/>
			<stop  offset="1" style="stop-color:#3DA3DB"/>
		</radialGradient>
		<path fill="url(#SVGID_7_)" d="M0-14.5c-7.995,0-14.5,6.505-14.5,14.5S-7.995,14.5,0,14.5S14.5,7.995,14.5,0S7.995-14.5,0-14.5z"
			/>
		<g>
			<path fill="#0080B8" d="M0,14c7.72,0,14-6.28,14-14S7.72-14,0-14S-14-7.72-14,0S-7.72,14,0,14 M0,15c-8.285,0-15-6.715-15-15
				s6.715-15,15-15c8.283,0,15,6.715,15,15S8.283,15,0,15L0,15z"/>
		</g>
	</g>
	<g opacity="0.8">
		<linearGradient id="SVGID_8_" gradientUnits="userSpaceOnUse" x1="-2.7383" y1="8.5093" x2="6.6363" y2="-20.5519">
			<stop  offset="0" style="stop-color:#FFFFFF"/>
			<stop  offset="1" style="stop-color:#0094CD"/>
		</linearGradient>
		<path fill="url(#SVGID_8_)" d="M8.906,12.048C8.998,11.376,9.062,10.697,9.062,10c0-8.284-6.715-15-15-15
			c-3.34,0-6.414,1.105-8.906,2.951C-13.844-9.362-7.588-15,0-15c8.283,0,15,6.715,15,15C15,4.945,12.596,9.316,8.906,12.048z"/>
	</g>
</symbol>
<use xlink:href="#Icono_2_-_Comentarios2"  width="62" height="51.561" x="-31" y="-25.78" transform="matrix(3.7159 0 0 -3.0462 214.9756 179.2397)" overflow="visible"/>
<use xlink:href="#Viñeta_6_-_Azul"  width="48" height="48" x="-24" y="-24" transform="matrix(8.4301 0 0 -8.3202 212.3369 211.4639)" overflow="visible"/>
<use xlink:href="#Icono_2_-_Comentarios2"  width="62" height="51.561" x="-31" y="-25.78" transform="matrix(3.3334 0 0 -4.2022 204.8315 223.7451)" overflow="visible"/>
</svg>
